<?xml version="1.0" encoding="UTF-8"?>
<!DOCTYPE svg PUBLIC "-//W3C//DTD SVG 1.1//EN" "http://www.w3.org/Graphics/SVG/1.1/DTD/svg11.dtd">
<!-- Creator: CorelDRAW -->
<svg xmlns="http://www.w3.org/2000/svg" xml:space="preserve" width="8.5in" height="11in" version="1.1" style="shape-rendering:geometricPrecision; text-rendering:geometricPrecision; image-rendering:optimizeQuality; fill-rule:evenodd; clip-rule:evenodd"
viewBox="0 0 8500 11000"
 xmlns:xlink="http://www.w3.org/1999/xlink"
 xmlns:xodm="http://www.corel.com/coreldraw/odm/2003">
 <defs>
  <style type="text/css">
   <![CDATA[
    .str0 {stroke:#35140D;stroke-width:55.56;stroke-miterlimit:2.61313}
    .fil1 {fill:#FEFEFE}
    .fil0 {fill:#35140D}
    .fil2 {fill:#A46843}
   ]]>
  </style>
 </defs>
 <g id="Layer_x0020_1">
  <metadata id="CorelCorpID_0Corel-Layer"/>
  <g id="_2381538282080">
   <rect class="fil0 str0" x="2156.32" y="1687.01" width="1706.67" height="1706.66" rx="850.68" ry="853.33"/>
   <g>
    <path class="fil1" d="M2483.66 2849.56l103.08 -1.52c4.19,-4.56 1.58,-474.42 2.07,-546.25 0.21,-30.41 -1.85,-166.52 0.81,-183.7l619.98 -0.02 -0.13 -98.27 -726.08 -0.78 0.26 830.55z"/>
    <polygon class="fil1" points="2866.6,3032.77 2971.59,3032.71 2971.72,2356.26 2867.57,2355.87 "/>
    <g>
     <polygon class="fil1" points="2999.98,2367.89 2999.96,2448.01 3000.64,2457.23 3534.65,2457.11 3535.56,2359.66 3527.63,2359.17 3024.43,2359.25 2999.92,2359.29 "/>
     <polygon class="fil2" points="2999.92,2524.5 3535.74,2524.07 3535.93,2474.47 3000.74,2474.59 "/>
    </g>
    <polygon class="fil1" points="2628,2455.12 2645.02,2456.24 2808.77,2456.07 2818.75,2456.08 2824.74,2456.11 2833.98,2455.74 2834.26,2446.01 2834.17,2360.39 2627.98,2359.83 "/>
    <polygon class="fil2" points="2627.57,2521 2834.54,2521.06 2834.29,2472.7 2628.18,2472.48 "/>
    <polygon class="fil2" points="2483.48,2915.99 2588.09,2916.25 2588.3,2867.81 2483.81,2867.19 "/>
    <polygon class="fil2" points="2866.44,3096.35 2971.42,3096.43 2971.86,3048 2867.51,3047.7 "/>
    <polygon class="fil1" points="2999.98,2661.89 2999.96,2742.01 3000.64,2751.23 3534.65,2751.11 3535.56,2653.66 3527.63,2653.18 3024.43,2653.25 2999.92,2653.29 "/>
    <polygon class="fil2" points="2999.92,2818.5 3535.74,2818.07 3535.93,2768.47 3000.74,2768.59 "/>
   </g>
  </g>
 </g>
</svg>
